<svg width="30" height="30" viewBox="0 0 30 30" fill="none" xmlns="http://www.w3.org/2000/svg">
<path fill-rule="evenodd" clip-rule="evenodd" d="M15.0002 0.833496C7.18016 0.833496 0.833496 7.18016 0.833496 15.0002C0.833496 22.8202 7.18016 29.1668 15.0002 29.1668C22.8202 29.1668 29.1668 22.8202 29.1668 15.0002C29.1668 7.18016 22.8202 0.833496 15.0002 0.833496ZM24.0102 21.8427C21.9843 19.3777 17.0685 18.5418 15.0002 18.5418C12.9318 18.5418 8.016 19.3777 5.99016 21.8427C4.54516 19.9443 3.66683 17.5785 3.66683 15.0002C3.66683 8.75266 8.75266 3.66683 15.0002 3.66683C21.2477 3.66683 26.3335 8.75266 26.3335 15.0002C26.3335 17.5785 25.4552 19.9443 24.0102 21.8427ZM10.0418 11.4585C10.0418 8.71016 12.2518 6.50016 15.0002 6.50016C17.7485 6.50016 19.9585 8.71016 19.9585 11.4585C19.9585 14.2068 17.7485 16.4168 15.0002 16.4168C12.2518 16.4168 10.0418 14.2068 10.0418 11.4585Z" fill="black"/>
</svg>
